<svg xmlns="http://www.w3.org/2000/svg" viewBox="0 0 1440 320"><path fill="#0099ff" fill-opacity="1" d="M0,96L26.7,101.3C53.3,107,107,117,160,149.3C213.3,181,267,235,320,266.7C373.3,299,427,309,480,288C533.3,267,587,213,640,213.3C693.3,213,747,267,800,240C853.3,213,907,107,960,96C1013.3,85,1067,171,1120,208C1173.3,245,1227,235,1280,197.3C1333.3,160,1387,96,1413,64L1440,32L1440,0L1413.3,0C1386.7,0,1333,0,1280,0C1226.7,0,1173,0,1120,0C1066.7,0,1013,0,960,0C906.7,0,853,0,800,0C746.7,0,693,0,640,0C586.7,0,533,0,480,0C426.7,0,373,0,320,0C266.7,0,213,0,160,0C106.7,0,53,0,27,0L0,0Z"></path></svg>