<svg xmlns="http://www.w3.org/2000/svg" viewBox="0 0 1440 320"><path fill='#3f51b5' fill-opacity="1" d="M0,96L26.7,80C53.3,64,107,32,160,37.3C213.3,43,267,85,320,138.7C373.3,192,427,256,480,250.7C533.3,245,587,171,640,138.7C693.3,107,747,117,800,149.3C853.3,181,907,235,960,240C1013.3,245,1067,203,1120,165.3C1173.3,128,1227,96,1280,112C1333.3,128,1387,192,1413,224L1440,256L1440,0L1413.3,0C1386.7,0,1333,0,1280,0C1226.7,0,1173,0,1120,0C1066.7,0,1013,0,960,0C906.7,0,853,0,800,0C746.7,0,693,0,640,0C586.7,0,533,0,480,0C426.7,0,373,0,320,0C266.7,0,213,0,160,0C106.7,0,53,0,27,0L0,0Z"></path></svg>