<svg xmlns="http://www.w3.org/2000/svg" viewBox="0 0 1440 320"><path fill="#0099ff" fill-opacity="1" d="M0,224L26.7,234.7C53.3,245,107,267,160,245.3C213.3,224,267,160,320,144C373.3,128,427,160,480,176C533.3,192,587,192,640,208C693.3,224,747,256,800,234.7C853.3,213,907,139,960,106.7C1013.3,75,1067,85,1120,112C1173.3,139,1227,181,1280,181.3C1333.3,181,1387,139,1413,117.3L1440,96L1440,0L1413.3,0C1386.7,0,1333,0,1280,0C1226.7,0,1173,0,1120,0C1066.7,0,1013,0,960,0C906.7,0,853,0,800,0C746.7,0,693,0,640,0C586.7,0,533,0,480,0C426.7,0,373,0,320,0C266.7,0,213,0,160,0C106.7,0,53,0,27,0L0,0Z"></path></svg>